<svg width="17" height="16" viewBox="0 0 17 16" fill="none" xmlns="http://www.w3.org/2000/svg">
<path d="M11.0845 14.1562C10.6572 14.5837 10.0776 14.8239 9.47311 14.824C8.86866 14.8241 8.28892 14.5841 7.86144 14.1568C7.43396 13.7294 7.19374 13.1498 7.19363 12.5453C7.19352 11.9409 7.43354 11.3611 7.86087 10.9337L5.84736 12.9483C5.41988 13.3758 4.84008 13.6159 4.23553 13.6159C3.63097 13.6159 3.05118 13.3758 2.6237 12.9483C2.19621 12.5208 1.95605 11.941 1.95605 11.3365C1.95605 10.7319 2.19621 10.1521 2.6237 9.72464L9.87552 2.47282C10.303 2.04533 10.8828 1.80518 11.4874 1.80518C12.0919 1.80518 12.6717 2.04533 13.0992 2.47282C13.5267 2.9003 13.7668 3.4801 13.7668 4.08465C13.7668 4.6892 13.5267 5.269 13.0992 5.69648L11.0845 7.70999C11.512 7.28266 12.0918 7.04265 12.6962 7.04275C13.3006 7.04286 13.8803 7.28308 14.3076 7.71056C14.735 8.13805 14.975 8.71778 14.9749 9.32223C14.9748 9.92667 14.7345 10.5063 14.3071 10.9337L11.0845 14.1562Z" stroke="white" stroke-width="2.27901" stroke-linecap="round" stroke-linejoin="round"/>
</svg>
