<svg width="17" height="17" viewBox="0 0 17 17" fill="none" xmlns="http://www.w3.org/2000/svg">
<path d="M7.12279 14.2228C6.6953 14.6502 6.11551 14.8904 5.51096 14.8904C4.9064 14.8904 4.32661 14.6502 3.89912 14.2228C3.47164 13.7953 3.23148 13.2155 3.23148 12.6109C3.23148 12.0064 3.47164 11.4266 3.89912 10.9991L5.91377 8.98558C5.7021 9.19718 5.45083 9.36501 5.1743 9.47949C4.89777 9.59398 4.6014 9.65287 4.30211 9.65282C3.69766 9.65271 3.11801 9.4125 2.69068 8.98501C2.47908 8.77334 2.31125 8.52207 2.19677 8.24554C2.08228 7.96901 2.02338 7.67264 2.02344 7.37335C2.02354 6.7689 2.26376 6.18925 2.69125 5.76192L5.91377 2.53939C6.34111 2.11191 6.92075 1.87169 7.5252 1.87158C7.82449 1.87153 8.12087 1.93043 8.3974 2.04491C8.67393 2.1594 8.9252 2.32723 9.13687 2.53882C9.34854 2.75042 9.51646 3.00163 9.63104 3.27812C9.74562 3.55461 9.80462 3.85096 9.80468 4.15025C9.80473 4.44954 9.74583 4.74592 9.63135 5.02245C9.51686 5.29898 9.34903 5.55025 9.13744 5.76192L11.1509 3.74727C11.5784 3.31978 12.1582 3.07963 12.7628 3.07963C13.3673 3.07963 13.9471 3.31978 14.3746 3.74727C14.8021 4.17475 15.0423 4.75455 15.0423 5.3591C15.0423 5.96366 14.8021 6.54345 14.3746 6.97093L7.12279 14.2228Z" stroke="white" stroke-width="2.27901" stroke-linecap="round" stroke-linejoin="round"/>
</svg>
